<?xml version="1.0" standalone="no"?>
<!DOCTYPE svg PUBLIC "-//W3C//DTD SVG 20010904//EN"
 "http://www.w3.org/TR/2001/REC-SVG-20010904/DTD/svg10.dtd">
<svg version="1.0" xmlns="http://www.w3.org/2000/svg"
 width="500.000000pt" height="500.000000pt" viewBox="0 0 500.000000 500.000000"
 preserveAspectRatio="xMidYMid meet">
<metadata>
Created by potrace 1.14, written by Peter Selinger 2001-2017
</metadata>
<g transform="translate(0.000000,500.000000) scale(0.100000,-0.100000)"
fill="#000000" stroke="none">
<path d="M2385 4987 c-282 -74 -516 -369 -679 -857 -31 -91 -59 -164 -63 -163
-5 0 -60 13 -123 27 -200 44 -346 59 -535 53 -141 -4 -186 -10 -262 -31 -236
-65 -382 -195 -438 -390 -14 -46 -16 -85 -13 -175 5 -131 35 -235 107 -378 78
-156 252 -394 375 -513 25 -24 46 -50 46 -57 0 -8 -33 -49 -74 -93 -205 -219
-345 -437 -418 -653 -40 -118 -51 -288 -23 -383 41 -142 141 -261 276 -329
124 -63 231 -86 424 -92 189 -6 335 9 535 53 63 14 119 27 123 27 5 1 28 -56
51 -128 111 -336 230 -552 391 -710 125 -123 238 -181 376 -192 339 -29 642
291 840 887 26 80 52 144 56 143 4 0 60 -13 123 -27 197 -44 346 -59 530 -53
133 4 184 10 261 30 238 62 387 194 444 391 28 95 17 265 -23 383 -71 210
-221 444 -412 646 -44 47 -80 91 -80 99 0 7 23 36 51 63 120 117 293 355 370
508 72 143 102 247 107 378 5 131 -8 193 -60 292 -40 75 -140 168 -229 212
-124 63 -231 86 -424 92 -189 6 -335 -9 -535 -53 -63 -14 -119 -27 -123 -27
-5 -1 -28 57 -51 128 -110 335 -228 548 -391 710 -130 129 -244 185 -395 191
-50 2 -106 -2 -135 -9z m206 -203 c173 -51 335 -256 468 -591 51 -130 94 -274
84 -282 -4 -4 -53 -22 -108 -41 -113 -38 -322 -120 -439 -174 -43 -20 -86 -36
-96 -36 -10 0 -53 16 -96 36 -120 55 -308 130 -435 173 -62 21 -115 43 -117
49 -6 20 91 290 147 408 124 258 261 413 406 457 66 20 119 21 186 1z m-1246
-958 c50 -9 129 -26 177 -37 l86 -20 -9 -32 c-16 -61 -57 -313 -73 -457 -10
-80 -19 -158 -22 -175 -3 -23 -18 -39 -61 -70 -96 -66 -333 -253 -415 -326
l-76 -69 -79 86 c-255 280 -403 557 -403 754 0 83 12 127 53 186 58 87 149
138 297 170 87 18 402 12 525 -10z m2880 0 c292 -80 376 -285 245 -600 -58
-138 -193 -336 -344 -501 l-79 -86 -41 39 c-79 75 -359 297 -484 384 -22 15
-25 29 -38 143 -19 176 -41 320 -68 452 l-23 112 86 20 c82 19 226 45 301 55
86 10 386 -2 445 -18z m-2290 -160 c168 -56 315 -116 315 -127 0 -5 -26 -22
-57 -38 -65 -32 -342 -192 -417 -239 -27 -18 -51 -30 -53 -28 -10 10 69 476
81 476 1 0 60 -20 131 -44z m1269 27 c19 -65 81 -452 73 -459 -2 -2 -26 10
-53 28 -75 47 -352 207 -416 239 -32 16 -58 33 -58 38 0 11 160 76 320 130
137 47 127 45 134 24z m-581 -324 c276 -139 662 -376 680 -418 13 -30 17 -824
4 -883 -7 -33 -19 -44 -130 -116 -164 -107 -373 -228 -539 -313 l-138 -70
-137 70 c-167 85 -376 206 -540 313 -111 72 -123 83 -130 116 -10 49 -10 816
0 865 7 34 18 44 110 104 180 116 348 214 522 305 94 48 171 88 173 88 1 0 57
-28 125 -61z m-1145 -1025 l-3 -157 -85 68 c-123 98 -280 235 -280 244 0 11
125 122 255 226 l110 89 3 -157 c1 -86 1 -227 0 -313z m2159 379 c127 -102
253 -213 253 -224 0 -12 -308 -273 -357 -303 -10 -6 -13 58 -13 303 0 171 2
311 5 311 2 0 53 -39 112 -87z m-2298 -680 c86 -64 158 -118 160 -119 1 -2 9
-57 16 -124 19 -170 44 -337 69 -462 l22 -107 -86 -20 c-245 -58 -531 -78
-685 -48 -168 32 -270 93 -329 197 -29 52 -31 61 -31 160 0 85 5 119 24 175
63 183 180 364 378 582 l74 83 116 -101 c64 -55 187 -152 272 -216z m2891 112
c127 -156 222 -317 271 -460 19 -55 24 -91 24 -171 0 -92 -3 -105 -30 -159
-54 -106 -157 -169 -330 -202 -154 -30 -440 -10 -686 48 l-86 20 23 112 c27
132 49 276 68 451 8 70 16 128 17 130 205 151 338 255 429 335 l115 100 64
-67 c35 -37 89 -98 121 -137z m-2412 -438 c108 -67 296 -174 381 -216 35 -18
60 -36 55 -41 -22 -21 -442 -175 -452 -165 -7 6 -31 129 -52 260 -28 179 -32
215 -25 215 4 0 46 -24 93 -53z m1457 6 c-22 -159 -69 -420 -77 -429 -10 -9
-430 145 -452 166 -5 5 20 23 55 41 81 40 325 179 404 230 33 21 64 39 68 39
5 0 5 -21 2 -47z m-681 -418 c125 -57 283 -120 416 -165 69 -24 129 -46 133
-50 18 -16 -85 -304 -164 -463 -90 -177 -221 -335 -322 -385 -150 -74 -290
-46 -427 88 -109 106 -203 261 -289 477 -53 132 -95 273 -84 283 4 4 40 18 78
30 90 29 402 152 480 190 33 15 70 29 81 29 12 1 56 -15 98 -34z"/>
<path d="M2352 3080 c-109 -29 -187 -75 -272 -160 -87 -86 -132 -164 -160
-276 -36 -141 -17 -295 52 -427 43 -81 155 -194 239 -240 133 -74 288 -94 434
-57 108 28 197 80 280 164 81 82 127 163 155 272 36 141 18 295 -52 427 -43
81 -164 202 -245 245 -132 69 -291 89 -431 52z m236 -190 c119 -28 213 -103
269 -218 36 -72 38 -81 38 -172 0 -91 -2 -100 -37 -172 -45 -91 -103 -147
-196 -191 -61 -29 -76 -32 -162 -32 -86 0 -101 3 -162 32 -91 43 -151 101
-193 187 -79 159 -50 332 75 456 100 101 234 140 368 110z"/>
</g>
</svg>
